<?xml version="1.0" encoding="utf-8"?>
<!-- Generator: Adobe Illustrator 28.0.0, SVG Export Plug-In . SVG Version: 6.00 Build 0)  -->
<svg version="1.1" id="Layer_1" xmlns="http://www.w3.org/2000/svg" xmlns:xlink="http://www.w3.org/1999/xlink" x="0px" y="0px"
	 viewBox="0 0 128 128" style="enable-background:new 0 0 128 128;" xml:space="preserve">
<style type="text/css">
	.st0{display:none;fill-rule:evenodd;clip-rule:evenodd;}
	.st1{opacity:0.99;fill:none;stroke:#000000;stroke-width:5;stroke-miterlimit:10;enable-background:new    ;}
	
		.st2{opacity:0.99;clip-path:url(#SVGID_00000168095514429523349270000012132314131460329890_);fill:none;stroke:#000000;stroke-width:5;stroke-miterlimit:10;enable-background:new    ;}
</style>
<rect class="st0" width="128" height="128"/>
<path class="st1" d="M89.8,111.2h-73c-4.3,0-7.8-3.5-7.8-7.8V42.7c0-4.3,3.5-7.8,7.8-7.8h73c4.3,0,7.8,3.5,7.8,7.8v60.7
	C97.6,107.7,94.1,111.2,89.8,111.2z"/>
<g>
	<g>
		<defs>
			<polygon id="SVGID_1_" points="164,112 98.4,112 98.4,36.5 0,36.6 0,-11 164,-11 			"/>
		</defs>
		<clipPath id="SVGID_00000071529841010407427020000001429442268814732437_">
			<use xlink:href="#SVGID_1_"  style="overflow:visible;"/>
		</clipPath>
		
			<path style="opacity:0.99;clip-path:url(#SVGID_00000071529841010407427020000001429442268814732437_);fill:none;stroke:#000000;stroke-width:5;stroke-miterlimit:10;enable-background:new    ;" d="
			M102.8,98.8l-72.3-10c-4.2-0.6-7.2-4.5-6.6-8.8l8.3-60.2c0.6-4.2,4.5-7.2,8.8-6.6l72.3,10c4.2,0.6,7.2,4.5,6.6,8.8l-8.3,60.2
			C110.9,96.4,107,99.3,102.8,98.8z"/>
	</g>
</g>
<path d="M56,95.6h-3.8c-1.7,0-3-1.3-3-3V56c0-1.7,1.3-3,3-3H56c1.7,0,3,1.3,3,3v36.6C59,94.3,57.7,95.6,56,95.6z"/>
<path d="M32.8,76.2v-3.8c0-1.7,1.3-3,3-3h36.6c1.7,0,3,1.3,3,3v3.8c0,1.7-1.3,3-3,3H35.8C34.1,79.2,32.8,77.9,32.8,76.2z"/>
</svg>
